<svg xmlns="http://www.w3.org/2000/svg" width="900" height="260" viewBox="0 0 900 260" font-family="ui-monospace, SFMono-Regular, Menlo, Consolas, monospace"><defs><linearGradient id="bg" x1="0" y1="0" x2="0" y2="1"><stop offset="0" stop-color="#111722"/><stop offset="1" stop-color="#0d1117"/></linearGradient></defs><rect width="900" height="260" rx="12" fill="url(#bg)"/><rect x="0.5" y="0.5" width="899" height="259" rx="12" fill="none" stroke="#30363d" stroke-width="1"/><line x1="0" y1="30" x2="900" y2="30" stroke="#30363d"/><circle cx="20" cy="15.0" r="5" fill="#ff5f56"/><circle cx="36" cy="15.0" r="5" fill="#ffbd2e"/><circle cx="52" cy="15.0" r="5" fill="#27c93f"/><text x="450.0" y="19.0" fill="#7d8590" font-size="12" text-anchor="middle">gabriel@github: ~$ cat now.yaml</text><g><text x="20" y="62.0" fill="#3fb950" font-size="13" font-weight="700">learning:</text></g><g><text x="40" y="80.0" fill="#7d8590" font-size="12.5">-</text><text x="54" y="80.0" fill="#c9d1d9" font-size="12.5">Advanced LLM orchestration &amp; agentic workflows</text></g><g><text x="40" y="98.0" fill="#7d8590" font-size="12.5">-</text><text x="54" y="98.0" fill="#c9d1d9" font-size="12.5">Distributed systems &amp; scalable data pipelines</text></g><g><text x="40" y="116.0" fill="#7d8590" font-size="12.5">-</text><text x="54" y="116.0" fill="#c9d1d9" font-size="12.5">Leadership &amp; entrepreneurship</text></g><g><text x="20" y="134.0" fill="#58a6ff" font-size="13" font-weight="700">exploring:</text></g><g><text x="40" y="152.0" fill="#7d8590" font-size="12.5">-</text><text x="54" y="152.0" fill="#c9d1d9" font-size="12.5">AI applications in accounting automation</text></g><g><text x="40" y="170.0" fill="#7d8590" font-size="12.5">-</text><text x="54" y="170.0" fill="#c9d1d9" font-size="12.5">Behavioral economics x product design</text></g><g><text x="20" y="188.0" fill="#f2cc60" font-size="13" font-weight="700">open_to:</text></g><g><text x="40" y="206.0" fill="#7d8590" font-size="12.5">-</text><text x="54" y="206.0" fill="#c9d1d9" font-size="12.5">Builder Roles | AI/ML Roles</text></g><g><text x="40" y="224.0" fill="#7d8590" font-size="12.5">-</text><text x="54" y="224.0" fill="#c9d1d9" font-size="12.5">Open Source collaboration | Founder &amp; investor conversations</text></g></svg>