<svg xmlns="http://www.w3.org/2000/svg" width="900" height="310" viewBox="0 0 900 310" font-family="ui-monospace, SFMono-Regular, Menlo, Consolas, monospace"><defs><linearGradient id="bg" x1="0" y1="0" x2="0" y2="1"><stop offset="0" stop-color="#111722"/><stop offset="1" stop-color="#0d1117"/></linearGradient></defs><rect width="900" height="310" rx="12" fill="url(#bg)"/><rect x="0.5" y="0.5" width="899" height="309" rx="12" fill="none" stroke="#30363d" stroke-width="1"/><line x1="0" y1="30" x2="900" y2="30" stroke="#30363d"/><circle cx="20" cy="15.0" r="5" fill="#ff5f56"/><circle cx="36" cy="15.0" r="5" fill="#ffbd2e"/><circle cx="52" cy="15.0" r="5" fill="#27c93f"/><text x="450.0" y="19.0" fill="#7d8590" font-size="12" text-anchor="middle">gabriel@github: ~$ ./honors.sh</text><g><rect x="20" y="51.0" width="4" height="20" rx="2" fill="#f2cc60"/><text x="34" y="64.0" fill="#c9d1d9" font-size="13" font-weight="700">39 Olympiad Medals (19 Gold)</text><text x="34" y="78.0" fill="#7d8590" font-size="11.5">49 science olympiads, 7,000+ study hours, 2 intl awards. Includes Gold at ONNEQ, OBB, OMEM, OQJ, 2x ONEE, 2x Math Sans Frontieres Intl</text></g><g><rect x="20" y="81.0" width="4" height="20" rx="2" fill="#3fb950"/><text x="34" y="94.0" fill="#c9d1d9" font-size="13" font-weight="700">SAT 1510/1600</text><text x="34" y="108.0" fill="#7d8590" font-size="11.5">Math 780 (98th percentile global), Top 1% in Brazil</text></g><g><rect x="20" y="111.0" width="4" height="20" rx="2" fill="#22d3ee"/><text x="34" y="124.0" fill="#c9d1d9" font-size="13" font-weight="700">R$1.5M+ Merit Scholarships</text><text x="34" y="138.0" fill="#7d8590" font-size="11.5">Full rides at Brazil&#x27;s top 4 prep schools</text></g><g><rect x="20" y="141.0" width="4" height="20" rx="2" fill="#58a6ff"/><text x="34" y="154.0" fill="#c9d1d9" font-size="13" font-weight="700">LALA Leadership Academy</text><text x="34" y="168.0" fill="#7d8590" font-size="11.5">Latin American Leadership Academy fellow</text></g><g><rect x="20" y="171.0" width="4" height="20" rx="2" fill="#58a6ff"/><text x="34" y="184.0" fill="#c9d1d9" font-size="13" font-weight="700">Fundacao Estudar</text><text x="34" y="198.0" fill="#7d8590" font-size="11.5">1 of ~70 fellows from 10,000+ candidates (0.7% acceptance)</text></g><g><rect x="20" y="201.0" width="4" height="20" rx="2" fill="#ff7b72"/><text x="34" y="214.0" fill="#c9d1d9" font-size="13" font-weight="700">Canastra Ventures AI Residency</text><text x="34" y="228.0" fill="#7d8590" font-size="11.5">R$800K pre-seed, 1 of 6 startups (2.5%), youngest founding team ever</text></g><g><rect x="20" y="231.0" width="4" height="20" rx="2" fill="#22d3ee"/><text x="34" y="244.0" fill="#c9d1d9" font-size="13" font-weight="700">Colegio Militar de Salvador</text><text x="34" y="258.0" fill="#7d8590" font-size="11.5">Admitted at age 10 (1 of 30 from 2,000+), Alamar 5 consecutive years</text></g><g><rect x="20" y="261.0" width="4" height="20" rx="2" fill="#3fb950"/><text x="34" y="274.0" fill="#c9d1d9" font-size="13" font-weight="700">IIP Selection</text><text x="34" y="288.0" fill="#7d8590" font-size="11.5">1 of 14 among 700+ candidates, International Institute of Physics</text></g></svg>