<svg xmlns="http://www.w3.org/2000/svg" width="900" height="252" viewBox="0 0 900 252" font-family="ui-monospace, SFMono-Regular, Menlo, Consolas, monospace"><defs><linearGradient id="bg" x1="0" y1="0" x2="0" y2="1"><stop offset="0" stop-color="#111722"/><stop offset="1" stop-color="#0d1117"/></linearGradient></defs><rect width="900" height="252" rx="12" fill="url(#bg)"/><rect x="0.5" y="0.5" width="899" height="251" rx="12" fill="none" stroke="#30363d" stroke-width="1"/><line x1="0" y1="30" x2="900" y2="30" stroke="#30363d"/><circle cx="20" cy="15.0" r="5" fill="#ff5f56"/><circle cx="36" cy="15.0" r="5" fill="#ffbd2e"/><circle cx="52" cy="15.0" r="5" fill="#27c93f"/><text x="450.0" y="19.0" fill="#7d8590" font-size="12" text-anchor="middle">gabriel@github: ~$ ./skills --ai</text><g opacity="0" transform="translate(0,5)"><text x="20" y="64.0" fill="#c9d1d9" font-size="12.5" font-weight="700">LLM Product Building</text><rect x="270.0" y="53.0" width="9.1" height="12" rx="2" fill="#3fb950"/><rect x="281.1" y="53.0" width="9.1" height="12" rx="2" fill="#3fb950"/><rect x="292.2" y="53.0" width="9.1" height="12" rx="2" fill="#3fb950"/><rect x="303.3" y="53.0" width="9.1" height="12" rx="2" fill="#3fb950"/><rect x="314.4" y="53.0" width="9.1" height="12" rx="2" fill="#3fb950"/><rect x="325.5" y="53.0" width="9.1" height="12" rx="2" fill="#3fb950"/><rect x="336.6" y="53.0" width="9.1" height="12" rx="2" fill="#3fb950"/><rect x="347.7" y="53.0" width="9.1" height="12" rx="2" fill="#3fb950"/><rect x="358.8" y="53.0" width="9.1" height="12" rx="2" fill="#3fb950"/><rect x="369.9" y="53.0" width="9.1" height="12" rx="2" fill="#3fb950"/><rect x="381.0" y="53.0" width="9.1" height="12" rx="2" fill="#3fb950"/><rect x="392.1" y="53.0" width="9.1" height="12" rx="2" fill="#3fb950"/><rect x="403.2" y="53.0" width="9.1" height="12" rx="2" fill="#3fb950"/><rect x="414.3" y="53.0" width="9.1" height="12" rx="2" fill="#3fb950"/><rect x="425.4" y="53.0" width="9.1" height="12" rx="2" fill="#3fb950"/><rect x="436.5" y="53.0" width="9.1" height="12" rx="2" fill="#3fb950"/><rect x="447.6" y="53.0" width="9.1" height="12" rx="2" fill="#3fb950"/><rect x="458.7" y="53.0" width="9.1" height="12" rx="2" fill="#3fb950"/><rect x="469.8" y="53.0" width="9.1" height="12" rx="2" fill="#3fb950"/><rect x="480.9" y="53.0" width="9.1" height="12" rx="2" fill="#20262e"/><text x="500" y="64.0" fill="#f2cc60" font-size="12.5" font-weight="700">95%</text><text x="20" y="79.0" fill="#7d8590" font-size="11.5">Claude API integration, narrative generation in prod</text><animate attributeName="opacity" from="0" to="1" begin="0.12s" dur="0.4s" fill="freeze"/><animateTransform attributeName="transform" type="translate" from="0 5" to="0 0" begin="0.12s" dur="0.4s" fill="freeze" calcMode="spline" keySplines="0.2 0.8 0.2 1"/></g><g opacity="0" transform="translate(0,5)"><text x="20" y="100.0" fill="#c9d1d9" font-size="12.5" font-weight="700">AI Data Pipelines</text><rect x="270.0" y="89.0" width="9.1" height="12" rx="2" fill="#3fb950"/><rect x="281.1" y="89.0" width="9.1" height="12" rx="2" fill="#3fb950"/><rect x="292.2" y="89.0" width="9.1" height="12" rx="2" fill="#3fb950"/><rect x="303.3" y="89.0" width="9.1" height="12" rx="2" fill="#3fb950"/><rect x="314.4" y="89.0" width="9.1" height="12" rx="2" fill="#3fb950"/><rect x="325.5" y="89.0" width="9.1" height="12" rx="2" fill="#3fb950"/><rect x="336.6" y="89.0" width="9.1" height="12" rx="2" fill="#3fb950"/><rect x="347.7" y="89.0" width="9.1" height="12" rx="2" fill="#3fb950"/><rect x="358.8" y="89.0" width="9.1" height="12" rx="2" fill="#3fb950"/><rect x="369.9" y="89.0" width="9.1" height="12" rx="2" fill="#3fb950"/><rect x="381.0" y="89.0" width="9.1" height="12" rx="2" fill="#3fb950"/><rect x="392.1" y="89.0" width="9.1" height="12" rx="2" fill="#3fb950"/><rect x="403.2" y="89.0" width="9.1" height="12" rx="2" fill="#3fb950"/><rect x="414.3" y="89.0" width="9.1" height="12" rx="2" fill="#3fb950"/><rect x="425.4" y="89.0" width="9.1" height="12" rx="2" fill="#3fb950"/><rect x="436.5" y="89.0" width="9.1" height="12" rx="2" fill="#3fb950"/><rect x="447.6" y="89.0" width="9.1" height="12" rx="2" fill="#3fb950"/><rect x="458.7" y="89.0" width="9.1" height="12" rx="2" fill="#3fb950"/><rect x="469.8" y="89.0" width="9.1" height="12" rx="2" fill="#20262e"/><rect x="480.9" y="89.0" width="9.1" height="12" rx="2" fill="#20262e"/><text x="500" y="100.0" fill="#f2cc60" font-size="12.5" font-weight="700">90%</text><text x="20" y="115.0" fill="#7d8590" font-size="11.5">Real-time ERP ingestion with AI classification at scale</text><animate attributeName="opacity" from="0" to="1" begin="0.17s" dur="0.4s" fill="freeze"/><animateTransform attributeName="transform" type="translate" from="0 5" to="0 0" begin="0.17s" dur="0.4s" fill="freeze" calcMode="spline" keySplines="0.2 0.8 0.2 1"/></g><g opacity="0" transform="translate(0,5)"><text x="20" y="136.0" fill="#c9d1d9" font-size="12.5" font-weight="700">Personalization Algorithms</text><rect x="270.0" y="125.0" width="9.1" height="12" rx="2" fill="#3fb950"/><rect x="281.1" y="125.0" width="9.1" height="12" rx="2" fill="#3fb950"/><rect x="292.2" y="125.0" width="9.1" height="12" rx="2" fill="#3fb950"/><rect x="303.3" y="125.0" width="9.1" height="12" rx="2" fill="#3fb950"/><rect x="314.4" y="125.0" width="9.1" height="12" rx="2" fill="#3fb950"/><rect x="325.5" y="125.0" width="9.1" height="12" rx="2" fill="#3fb950"/><rect x="336.6" y="125.0" width="9.1" height="12" rx="2" fill="#3fb950"/><rect x="347.7" y="125.0" width="9.1" height="12" rx="2" fill="#3fb950"/><rect x="358.8" y="125.0" width="9.1" height="12" rx="2" fill="#3fb950"/><rect x="369.9" y="125.0" width="9.1" height="12" rx="2" fill="#3fb950"/><rect x="381.0" y="125.0" width="9.1" height="12" rx="2" fill="#3fb950"/><rect x="392.1" y="125.0" width="9.1" height="12" rx="2" fill="#3fb950"/><rect x="403.2" y="125.0" width="9.1" height="12" rx="2" fill="#3fb950"/><rect x="414.3" y="125.0" width="9.1" height="12" rx="2" fill="#3fb950"/><rect x="425.4" y="125.0" width="9.1" height="12" rx="2" fill="#3fb950"/><rect x="436.5" y="125.0" width="9.1" height="12" rx="2" fill="#3fb950"/><rect x="447.6" y="125.0" width="9.1" height="12" rx="2" fill="#3fb950"/><rect x="458.7" y="125.0" width="9.1" height="12" rx="2" fill="#20262e"/><rect x="469.8" y="125.0" width="9.1" height="12" rx="2" fill="#20262e"/><rect x="480.9" y="125.0" width="9.1" height="12" rx="2" fill="#20262e"/><text x="500" y="136.0" fill="#f2cc60" font-size="12.5" font-weight="700">85%</text><text x="20" y="151.0" fill="#7d8590" font-size="11.5">Adaptive learning-path engines</text><animate attributeName="opacity" from="0" to="1" begin="0.22s" dur="0.4s" fill="freeze"/><animateTransform attributeName="transform" type="translate" from="0 5" to="0 0" begin="0.22s" dur="0.4s" fill="freeze" calcMode="spline" keySplines="0.2 0.8 0.2 1"/></g><g opacity="0" transform="translate(0,5)"><text x="20" y="172.0" fill="#c9d1d9" font-size="12.5" font-weight="700">Scientific Computing</text><rect x="270.0" y="161.0" width="9.1" height="12" rx="2" fill="#3fb950"/><rect x="281.1" y="161.0" width="9.1" height="12" rx="2" fill="#3fb950"/><rect x="292.2" y="161.0" width="9.1" height="12" rx="2" fill="#3fb950"/><rect x="303.3" y="161.0" width="9.1" height="12" rx="2" fill="#3fb950"/><rect x="314.4" y="161.0" width="9.1" height="12" rx="2" fill="#3fb950"/><rect x="325.5" y="161.0" width="9.1" height="12" rx="2" fill="#3fb950"/><rect x="336.6" y="161.0" width="9.1" height="12" rx="2" fill="#3fb950"/><rect x="347.7" y="161.0" width="9.1" height="12" rx="2" fill="#3fb950"/><rect x="358.8" y="161.0" width="9.1" height="12" rx="2" fill="#3fb950"/><rect x="369.9" y="161.0" width="9.1" height="12" rx="2" fill="#3fb950"/><rect x="381.0" y="161.0" width="9.1" height="12" rx="2" fill="#3fb950"/><rect x="392.1" y="161.0" width="9.1" height="12" rx="2" fill="#3fb950"/><rect x="403.2" y="161.0" width="9.1" height="12" rx="2" fill="#3fb950"/><rect x="414.3" y="161.0" width="9.1" height="12" rx="2" fill="#3fb950"/><rect x="425.4" y="161.0" width="9.1" height="12" rx="2" fill="#3fb950"/><rect x="436.5" y="161.0" width="9.1" height="12" rx="2" fill="#3fb950"/><rect x="447.6" y="161.0" width="9.1" height="12" rx="2" fill="#3fb950"/><rect x="458.7" y="161.0" width="9.1" height="12" rx="2" fill="#20262e"/><rect x="469.8" y="161.0" width="9.1" height="12" rx="2" fill="#20262e"/><rect x="480.9" y="161.0" width="9.1" height="12" rx="2" fill="#20262e"/><text x="500" y="172.0" fill="#f2cc60" font-size="12.5" font-weight="700">85%</text><text x="20" y="187.0" fill="#7d8590" font-size="11.5">SciPy differential equations, MATLAB modeling</text><animate attributeName="opacity" from="0" to="1" begin="0.27s" dur="0.4s" fill="freeze"/><animateTransform attributeName="transform" type="translate" from="0 5" to="0 0" begin="0.27s" dur="0.4s" fill="freeze" calcMode="spline" keySplines="0.2 0.8 0.2 1"/></g><g opacity="0" transform="translate(0,5)"><text x="20" y="208.0" fill="#c9d1d9" font-size="12.5" font-weight="700">Applied Econometrics</text><rect x="270.0" y="197.0" width="9.1" height="12" rx="2" fill="#3fb950"/><rect x="281.1" y="197.0" width="9.1" height="12" rx="2" fill="#3fb950"/><rect x="292.2" y="197.0" width="9.1" height="12" rx="2" fill="#3fb950"/><rect x="303.3" y="197.0" width="9.1" height="12" rx="2" fill="#3fb950"/><rect x="314.4" y="197.0" width="9.1" height="12" rx="2" fill="#3fb950"/><rect x="325.5" y="197.0" width="9.1" height="12" rx="2" fill="#3fb950"/><rect x="336.6" y="197.0" width="9.1" height="12" rx="2" fill="#3fb950"/><rect x="347.7" y="197.0" width="9.1" height="12" rx="2" fill="#3fb950"/><rect x="358.8" y="197.0" width="9.1" height="12" rx="2" fill="#3fb950"/><rect x="369.9" y="197.0" width="9.1" height="12" rx="2" fill="#3fb950"/><rect x="381.0" y="197.0" width="9.1" height="12" rx="2" fill="#3fb950"/><rect x="392.1" y="197.0" width="9.1" height="12" rx="2" fill="#3fb950"/><rect x="403.2" y="197.0" width="9.1" height="12" rx="2" fill="#3fb950"/><rect x="414.3" y="197.0" width="9.1" height="12" rx="2" fill="#3fb950"/><rect x="425.4" y="197.0" width="9.1" height="12" rx="2" fill="#3fb950"/><rect x="436.5" y="197.0" width="9.1" height="12" rx="2" fill="#20262e"/><rect x="447.6" y="197.0" width="9.1" height="12" rx="2" fill="#20262e"/><rect x="458.7" y="197.0" width="9.1" height="12" rx="2" fill="#20262e"/><rect x="469.8" y="197.0" width="9.1" height="12" rx="2" fill="#20262e"/><rect x="480.9" y="197.0" width="9.1" height="12" rx="2" fill="#20262e"/><text x="500" y="208.0" fill="#f2cc60" font-size="12.5" font-weight="700">75%</text><text x="20" y="223.0" fill="#7d8590" font-size="11.5">Experimental design, behavioral economics</text><animate attributeName="opacity" from="0" to="1" begin="0.32s" dur="0.4s" fill="freeze"/><animateTransform attributeName="transform" type="translate" from="0 5" to="0 0" begin="0.32s" dur="0.4s" fill="freeze" calcMode="spline" keySplines="0.2 0.8 0.2 1"/></g></svg>