<svg xmlns="http://www.w3.org/2000/svg" width="480" height="344" viewBox="0 0 480 344" font-family="ui-monospace, SFMono-Regular, Menlo, Consolas, monospace"><defs><linearGradient id="ibg" x1="0" y1="0" x2="0" y2="1"><stop offset="0" stop-color="#111722"/><stop offset="1" stop-color="#0d1117"/></linearGradient></defs><rect width="480" height="344" rx="12" fill="url(#ibg)"/><rect x="0.5" y="0.5" width="479" height="343" rx="12" fill="none" stroke="#30363d"/><line x1="0" y1="30" x2="480" y2="30" stroke="#30363d"/><circle cx="20" cy="15.0" r="5" fill="#ff5f56"/><circle cx="36" cy="15.0" r="5" fill="#ffbd2e"/><circle cx="52" cy="15.0" r="5" fill="#27c93f"/><text x="240.0" y="19.0" fill="#7d8590" font-size="12" text-anchor="middle">gabriel@github: ~$ neofetch</text><g><text x="20" y="60.0" font-size="14" font-weight="700"><tspan fill="#3fb950">gabriel</tspan><tspan fill="#7d8590">@</tspan><tspan fill="#22d3ee">github</tspan></text><line x1="140" y1="56.0" x2="460" y2="56.0" stroke="#30363d" stroke-opacity="0.8"/></g><g><text x="20" y="80.5" fill="#ffa657" font-size="12.5" font-weight="700">Now</text><text x="112" y="80.5" fill="#c9d1d9" font-size="12.5">Co-Founder &amp; CEO @ HIBEEX</text></g><g><text x="20" y="101.0" fill="#ffa657" font-size="12.5" font-weight="700">Focus</text><text x="112" y="101.0" fill="#c9d1d9" font-size="12.5">Full Stack Builder | AI/LLM | B2B FinTech</text></g><g><text x="20" y="121.5" fill="#ffa657" font-size="12.5" font-weight="700">Based</text><text x="112" y="121.5" fill="#c9d1d9" font-size="12.5">Salvador, BA, Brazil | Sao Paulo, SP, Brazil</text></g><g><text x="20" y="142.0" fill="#ffa657" font-size="12.5" font-weight="700">Fellow</text><text x="112" y="142.0" fill="#c9d1d9" font-size="12.5">LALA | Fundacao Estudar</text></g><g><text x="20" y="162.5" fill="#ffa657" font-size="12.5" font-weight="700">Langs</text><text x="112" y="162.5" fill="#c9d1d9" font-size="12.5">PT (native) | EN (advanced) | ES (basic-intermediate)</text></g><g><text x="20" y="193.2" fill="#58a6ff" font-size="12.5" font-weight="700">Mission</text><line x1="88" y1="189.2" x2="460" y2="189.2" stroke="#30363d" stroke-opacity="0.8"/></g><g><circle cx="23" cy="209.8" r="2.5" fill="#3fb950"/><text x="34" y="213.8" fill="#c9d1d9" font-size="12.5">Solve structural problems in Brazil using cutting-edge technology (currently AI)</text></g><g><text x="20" y="244.5" fill="#58a6ff" font-size="12.5" font-weight="700">Next</text><line x1="64" y1="240.5" x2="460" y2="240.5" stroke="#30363d" stroke-opacity="0.8"/></g><g><circle cx="23" cy="261.0" r="2.5" fill="#3fb950"/><text x="34" y="265.0" fill="#c9d1d9" font-size="12.5">Pitching Silicon Valley VCs | Oct 2026</text></g></svg>